<?xml version="1.0" standalone="no"?>
<!DOCTYPE svg PUBLIC "-//W3C//DTD SVG 20010904//EN"
 "http://www.w3.org/TR/2001/REC-SVG-20010904/DTD/svg10.dtd">
<svg version="1.0" xmlns="http://www.w3.org/2000/svg"
 width="116.000000pt" height="107.000000pt" viewBox="5 5 116.000000 107.000000"
 preserveAspectRatio="xMidYMid meet">

<g transform="translate(0.000000,107.000000) scale(0.100000,-0.100000)"
fill="#ff8811" stroke="none">
<path d="M150 873 c0 -5 23 -164 52 -355 l52 -348 88 0 c51 0 88 4 88 10 0 5
22 156 50 336 28 180 50 335 50 345 0 17 -8 19 -64 19 l-64 0 -6 -37 c-3 -21
-15 -135 -27 -253 -11 -118 -23 -217 -25 -219 -2 -2 -4 4 -4 15 0 26 -39 421
-46 462 l-5 32 -69 0 c-39 0 -70 -3 -70 -7z"/>
<path d="M550 525 l0 -357 124 3 c135 4 154 11 200 73 20 26 21 41 21 281 0
240 -1 255 -21 281 -46 62 -65 69 -200 73 l-124 3 0 -357z m204 199 c8 -20 8
-378 0 -398 -4 -10 -18 -16 -35 -16 l-29 0 0 215 0 215 29 0 c17 0 31 -6 35
-16z"/>

</g>

</svg>
