<svg
        version="1.0"
        width="75"
        height="72"
        viewBox="100 100 164 160"
        xmlns="http://www.w3.org/2000/svg"
        preserveAspectRatio="xMidYMid meet"
      >
        <path
          fill="#fff"

          d="M126.5 129.2c-1.1.6-2.1 1.2-2.3 1.3-.1.1 2.5 4.9 5.9 10.6 5.2 8.8 35 60.9 46.8 81.8 2 3.5 4.1 6.6 4.6 6.7.9.3 19.6-29.4 20.3-32.3.4-1.4-1.8-5.3-24.1-43.8-7.7-13.2-14.4-24.3-15.1-24.7-1.8-1.2-33.9-.9-36.1.4zM199 128.7c0 .5 4.5 3.5 10 6.8l9.9 6 .3 12.2.3 12.1 10.4-18c8.2-14.2 10.1-18.2 9-18.9-1.7-1.1-39.9-1.2-39.9-.2z"
          transform="scale(1,1)"
        />
      </svg>